 General
      Complete name : To.Kill.a.Mockingbird.1962.DVDRip.H264.AAC.Gopo.mp4
      Format : MPEG-4
      Format profile : Base Media
      Codec ID : isom
      File size : 1.01 GiB
      Duration : 2h 3mn
      Overall bit rate : 1 162 Kbps
      Encoded date : UTC 2009-12-09 11:15:34
      Tagged date : UTC 2009-12-09 11:15:34
      Writing application : Yamb 2.1.0.0 [http://yamb.unite-video.com]
   Video #1
      ID : 1
      Format : AVC
      Format/Info : Advanced Video Codec
      Format profile : High@L4.1
      Format settings, CABAC : Yes
      Format settings, ReFrames : 2 frames
      Codec ID : avc1
      Codec ID/Info : Advanced Video Coding
      Duration : 2h 3mn
      Bit rate mode : Variable
      Bit rate : 967 Kbps
      Maximum bit rate : 4 029 Kbps
      Width : 720 pixels
      Height : 544 pixels
      Display aspect ratio : 4:3
      Frame rate mode : Constant
      Frame rate : 25.000 fps
      Resolution : 24 bits
      Colorimetry : 4:2:0
      Scan type : Progressive
      Bits/(Pixel*Frame) : 0.099
      Stream size : 857 MiB (83%)
      Writing library : x264 core 79 r1360 528c100
      Encoding settings : cabac=1 / ref=2 / deblock=1:0:0 / analyse=0x3:0x113 / me=umh / subme=8 / psy=1 / psy_rd=1.0:0.0 / mixed_ref=1 / me_range=16 / chroma_me=1 / trellis=2 / 8x8dct=1 / cqm=0 / deadzone=21,11 / chroma_qp_offset=-2 / threads=3 / nr=0 / decimate=1 / mbaff=0 / constrained_intra=0 / bframes=3 / b_pyramid=0 / b_adapt=2 / b_bias=0 / direct=3 / wpredb=1 / wpredp=2 / keyint=250 / keyint_min=25 / scenecut=40 / rc_lookahead=30 / rc=2pass / mbtree=1 / bitrate=967 / ratetol=1.0 / qcomp=0.50 / qpmin=10 / qpmax=51 / qpstep=4 / cplxblur=20.0 / qblur=0.5 / vbv_maxrate=24000 / vbv_bufsize=24000 / ip_ratio=1.10 / aq=1:1.00 / cabac=1 / ref=2 / deblock=1:0:0 / analyse=0x3:0x113 / me=umh / subme=8 / psy=1 / psy_rd=1.0:0.0 / mixed_ref=1 / me_range=16 / chroma_me=1 / trellis=2 / 8x8dct=1 / cqm=0 / deadzone=21,11 / chroma_qp_offset=-2 / threads=3 / nr=0 / decimate=1 / mbaff=0 / constrained_intra=0 / bframes=3 / b_pyramid=0 / b_adapt=2 / b_bias=0 / direct=3 / wpredb=1 / wpredp=2 / keyint=250 / keyint_min=25 / scenecut=40 / rc_lookahead=30 / rc=2pass / mbtree=1 / bitrate=967 / ratetol=1.0 / qcomp=0.50 / qpmin=10 / qpmax=51 / qpstep=4 / cplxblur=20.0 / qblur=0.5 / vbv_maxrate=24000 / vbv_bufsize=24000 / ip_ratio=1.10 / aq=1:1.00
      Encoded date : UTC 2009-12-09 03:20:50
      Tagged date : UTC 2009-12-09 11:19:12
   Audio #2
      ID : 2
      Format : AAC
      Format/Info : Advanced Audio Codec
      Format version : Version 4
      Format profile : LC
      Format settings, SBR : No
      Codec ID : 40
      Duration : 2h 3mn
      Bit rate mode : Variable
      Bit rate : 192 Kbps
      Maximum bit rate : 243 Kbps
      Channel(s) : 2 channels
      Channel positions : L R
      Sampling rate : 48.0 KHz
      Resolution : 16 bits
      Stream size : 170 MiB (16%)
      Encoded date : UTC 2009-12-09 11:18:31
      Tagged date : UTC 2009-12-09 11:19:12
	Sample : YES
	Subtitle : English,Romanian

PLOT

Based on Harper Lee's Pulitzer Prize winning book of 1960. Atticus Finch is a lawyer in a racially divided Alabama town in the 1930s. He agrees to defend a young black man who is accused of raping a white woman. Many of the townspeople try to get Atticus to pull out of the trial, but he decides to go ahead. How will the trial turn out - and will it change any of the racial tension in the town ?
Director: Robert Mulligan
CASTING
      
      Gregory Peck	... 	Atticus Finch
	John Megna	... 	Charles Baker 'Dill' Harris
	Frank Overton	... 	Sheriff Heck Tate
	Rosemary Murphy	... 	Maudie Atkinson
	Ruth White	... 	Mrs. Dubose
	Brock Peters	... 	Tom Robinson
	Estelle Evans	... 	Calpurnia
	Paul Fix	... 	Judge Taylor
	Collin Wilcox Paxton	... 	Mayella Violet Ewell (as Collin Wilcox)
	James Anderson	... 	Robert E. Lee 'Bob' Ewell
	Alice Ghostley	... 	Aunt Stephanie Crawford
	Robert Duvall	... 	Arthur 'Boo' Radley
	William Windom	... 	Mr. Gilmer, Prosecutor
	Crahan Denton	... 	Walter Cunningham Sr.
	Richard Hale	... 	Nathan Radley

SOURCE: To.Kill.a.Mockingbird.1962.Romanian.Retail.DVD5-iNT

Notes: For best performance I suggest you to use KMPlayer(find it with google) for playback
I haven't tested the movies on a PS3 or Xbox or other devices than PC because I don't own one of them but feel free to test them if you have the oportunity.
